<?xml version="1.0" encoding="iso-8859-1"?>
<!-- Generator: Adobe Illustrator 19.0.0, SVG Export Plug-In . SVG Version: 6.00 Build 0)  -->
<svg version="1.1" id="Layer_1" xmlns="http://www.w3.org/2000/svg" xmlns:xlink="http://www.w3.org/1999/xlink" x="0px" y="0px"
	 viewBox="0 0 512 512" style="enable-background:new 0 0 512 512;" xml:space="preserve">
<rect x="8.879" y="32.037" style="fill:#FF6F52;" width="140.931" height="447.253"/>
<rect x="185.658" y="252.32" style="fill:#4EBFED;" width="140.931" height="226.962"/>
<rect x="362.426" y="177.434" style="fill:#FCD577;" width="140.931" height="301.86"/>
<path d="M149.694,23.614H8.761C3.922,23.614,0,27.536,0,32.374v38.211c0,4.838,3.922,8.761,8.761,8.761s8.761-3.922,8.761-8.761
	v-29.45h123.412v429.728H17.521V99.788c0-4.838-3.922-8.761-8.761-8.761S0,94.95,0,99.788v379.837c0,4.838,3.922,8.761,8.761,8.761
	h140.934c4.838,0,8.761-3.922,8.761-8.761V32.374C158.455,27.536,154.533,23.614,149.694,23.614z"/>
<path d="M326.467,243.903h-97.73c-4.838,0-8.761,3.922-8.761,8.761s3.922,8.761,8.761,8.761h88.969v209.439H194.293V261.425h5.24
	c4.838,0,8.761-3.922,8.761-8.761s-3.922-8.761-8.761-8.761h-14.001c-4.838,0-8.761,3.922-8.761,8.761v226.96
	c0,4.838,3.922,8.761,8.761,8.761h140.934c4.838,0,8.761-3.922,8.761-8.761v-226.96
	C335.228,247.826,331.306,243.903,326.467,243.903z"/>
<path d="M503.239,244.049c4.838,0,8.761-3.922,8.761-8.761v-57.52c0-4.838-3.922-8.761-8.761-8.761H362.306
	c-4.838,0-8.761,3.922-8.761,8.761v301.857c0,4.838,3.922,8.761,8.761,8.761h140.934c4.838,0,8.761-3.922,8.761-8.761V264.491
	c0-4.838-3.922-8.761-8.761-8.761s-8.761,3.922-8.761,8.761v206.373H371.066V186.53h123.412v48.759
	C494.479,240.127,498.401,244.049,503.239,244.049z"/>
<g>
</g>
<g>
</g>
<g>
</g>
<g>
</g>
<g>
</g>
<g>
</g>
<g>
</g>
<g>
</g>
<g>
</g>
<g>
</g>
<g>
</g>
<g>
</g>
<g>
</g>
<g>
</g>
<g>
</g>
</svg>
